<?xml version="1.0" standalone="no"?>
<svg xmlns:xlink="http://www.w3.org/1999/xlink" id="wave" style="transform:rotate(180deg); transition: 0.3s" viewBox="0 0 1440 310" version="1.1" xmlns="http://www.w3.org/2000/svg"><defs><linearGradient id="sw-gradient-0" x1="0" x2="0" y1="1" y2="0"><stop stop-color="rgba(255, 255, 255, 1)" offset="0%"/><stop stop-color="rgba(216.615, 211.068, 198.806, 1)" offset="100%"/></linearGradient></defs><path style="transform:translate(0, 0px); opacity:1" fill="url(#sw-gradient-0)" d="M0,279L17.1,279C34.3,279,69,279,103,258.3C137.1,238,171,196,206,186C240,176,274,196,309,201.5C342.9,207,377,196,411,175.7C445.7,155,480,124,514,108.5C548.6,93,583,93,617,103.3C651.4,114,686,134,720,165.3C754.3,196,789,238,823,222.2C857.1,207,891,134,926,93C960,52,994,41,1029,46.5C1062.9,52,1097,72,1131,72.3C1165.7,72,1200,52,1234,46.5C1268.6,41,1303,52,1337,56.8C1371.4,62,1406,62,1440,56.8C1474.3,52,1509,41,1543,56.8C1577.1,72,1611,114,1646,155C1680,196,1714,238,1749,232.5C1782.9,227,1817,176,1851,144.7C1885.7,114,1920,103,1954,129.2C1988.6,155,2023,217,2057,211.8C2091.4,207,2126,134,2160,98.2C2194.3,62,2229,62,2263,93C2297.1,124,2331,186,2366,217C2400,248,2434,248,2451,248L2468.6,248L2468.6,310L2451.4,310C2434.3,310,2400,310,2366,310C2331.4,310,2297,310,2263,310C2228.6,310,2194,310,2160,310C2125.7,310,2091,310,2057,310C2022.9,310,1989,310,1954,310C1920,310,1886,310,1851,310C1817.1,310,1783,310,1749,310C1714.3,310,1680,310,1646,310C1611.4,310,1577,310,1543,310C1508.6,310,1474,310,1440,310C1405.7,310,1371,310,1337,310C1302.9,310,1269,310,1234,310C1200,310,1166,310,1131,310C1097.1,310,1063,310,1029,310C994.3,310,960,310,926,310C891.4,310,857,310,823,310C788.6,310,754,310,720,310C685.7,310,651,310,617,310C582.9,310,549,310,514,310C480,310,446,310,411,310C377.1,310,343,310,309,310C274.3,310,240,310,206,310C171.4,310,137,310,103,310C68.6,310,34,310,17,310L0,310Z"/><defs><linearGradient id="sw-gradient-1" x1="0" x2="0" y1="1" y2="0"><stop stop-color="rgba(243, 106, 62, 1)" offset="0%"/><stop stop-color="rgba(200.677, 200.677, 200.677, 1)" offset="100%"/></linearGradient></defs><path style="transform:translate(0, 50px); opacity:0.9" fill="url(#sw-gradient-1)" d="M0,0L17.1,41.3C34.3,83,69,165,103,175.7C137.1,186,171,124,206,129.2C240,134,274,207,309,242.8C342.9,279,377,279,411,263.5C445.7,248,480,217,514,191.2C548.6,165,583,145,617,113.7C651.4,83,686,41,720,31C754.3,21,789,41,823,82.7C857.1,124,891,186,926,191.2C960,196,994,145,1029,118.8C1062.9,93,1097,93,1131,87.8C1165.7,83,1200,72,1234,87.8C1268.6,103,1303,145,1337,155C1371.4,165,1406,145,1440,144.7C1474.3,145,1509,165,1543,186C1577.1,207,1611,227,1646,232.5C1680,238,1714,227,1749,232.5C1782.9,238,1817,258,1851,232.5C1885.7,207,1920,134,1954,113.7C1988.6,93,2023,124,2057,139.5C2091.4,155,2126,155,2160,149.8C2194.3,145,2229,134,2263,129.2C2297.1,124,2331,124,2366,149.8C2400,176,2434,227,2451,253.2L2468.6,279L2468.6,310L2451.4,310C2434.3,310,2400,310,2366,310C2331.4,310,2297,310,2263,310C2228.6,310,2194,310,2160,310C2125.7,310,2091,310,2057,310C2022.9,310,1989,310,1954,310C1920,310,1886,310,1851,310C1817.1,310,1783,310,1749,310C1714.3,310,1680,310,1646,310C1611.4,310,1577,310,1543,310C1508.6,310,1474,310,1440,310C1405.7,310,1371,310,1337,310C1302.9,310,1269,310,1234,310C1200,310,1166,310,1131,310C1097.1,310,1063,310,1029,310C994.3,310,960,310,926,310C891.4,310,857,310,823,310C788.6,310,754,310,720,310C685.7,310,651,310,617,310C582.9,310,549,310,514,310C480,310,446,310,411,310C377.1,310,343,310,309,310C274.3,310,240,310,206,310C171.4,310,137,310,103,310C68.6,310,34,310,17,310L0,310Z"/><defs><linearGradient id="sw-gradient-2" x1="0" x2="0" y1="1" y2="0"><stop stop-color="rgba(243, 106, 62, 1)" offset="0%"/><stop stop-color="rgba(95.945, 94.163, 90.224, 1)" offset="100%"/></linearGradient></defs><path style="transform:translate(0, 100px); opacity:0.8" fill="url(#sw-gradient-2)" d="M0,186L17.1,186C34.3,186,69,186,103,175.7C137.1,165,171,145,206,124C240,103,274,83,309,72.3C342.9,62,377,62,411,51.7C445.7,41,480,21,514,51.7C548.6,83,583,165,617,170.5C651.4,176,686,103,720,103.3C754.3,103,789,176,823,186C857.1,196,891,145,926,129.2C960,114,994,134,1029,129.2C1062.9,124,1097,93,1131,67.2C1165.7,41,1200,21,1234,31C1268.6,41,1303,83,1337,129.2C1371.4,176,1406,227,1440,217C1474.3,207,1509,134,1543,93C1577.1,52,1611,41,1646,67.2C1680,93,1714,155,1749,170.5C1782.9,186,1817,155,1851,144.7C1885.7,134,1920,145,1954,144.7C1988.6,145,2023,134,2057,139.5C2091.4,145,2126,165,2160,149.8C2194.3,134,2229,83,2263,62C2297.1,41,2331,52,2366,77.5C2400,103,2434,145,2451,165.3L2468.6,186L2468.6,310L2451.4,310C2434.3,310,2400,310,2366,310C2331.4,310,2297,310,2263,310C2228.6,310,2194,310,2160,310C2125.7,310,2091,310,2057,310C2022.9,310,1989,310,1954,310C1920,310,1886,310,1851,310C1817.1,310,1783,310,1749,310C1714.3,310,1680,310,1646,310C1611.4,310,1577,310,1543,310C1508.6,310,1474,310,1440,310C1405.7,310,1371,310,1337,310C1302.9,310,1269,310,1234,310C1200,310,1166,310,1131,310C1097.1,310,1063,310,1029,310C994.3,310,960,310,926,310C891.4,310,857,310,823,310C788.6,310,754,310,720,310C685.7,310,651,310,617,310C582.9,310,549,310,514,310C480,310,446,310,411,310C377.1,310,343,310,309,310C274.3,310,240,310,206,310C171.4,310,137,310,103,310C68.6,310,34,310,17,310L0,310Z"/><defs><linearGradient id="sw-gradient-3" x1="0" x2="0" y1="1" y2="0"><stop stop-color="rgba(123.267, 37.636, 10.134, 1)" offset="0%"/><stop stop-color="rgba(127.82, 116.68, 92.054, 1)" offset="100%"/></linearGradient></defs><path style="transform:translate(0, 150px); opacity:0.7" fill="url(#sw-gradient-3)" d="M0,155L17.1,144.7C34.3,134,69,114,103,98.2C137.1,83,171,72,206,67.2C240,62,274,62,309,72.3C342.9,83,377,103,411,118.8C445.7,134,480,145,514,149.8C548.6,155,583,155,617,144.7C651.4,134,686,114,720,113.7C754.3,114,789,134,823,149.8C857.1,165,891,176,926,160.2C960,145,994,103,1029,93C1062.9,83,1097,103,1131,139.5C1165.7,176,1200,227,1234,253.2C1268.6,279,1303,279,1337,237.7C1371.4,196,1406,114,1440,82.7C1474.3,52,1509,72,1543,67.2C1577.1,62,1611,31,1646,51.7C1680,72,1714,145,1749,144.7C1782.9,145,1817,72,1851,62C1885.7,52,1920,103,1954,144.7C1988.6,186,2023,217,2057,222.2C2091.4,227,2126,207,2160,211.8C2194.3,217,2229,248,2263,217C2297.1,186,2331,93,2366,51.7C2400,10,2434,21,2451,25.8L2468.6,31L2468.6,310L2451.4,310C2434.3,310,2400,310,2366,310C2331.4,310,2297,310,2263,310C2228.6,310,2194,310,2160,310C2125.7,310,2091,310,2057,310C2022.9,310,1989,310,1954,310C1920,310,1886,310,1851,310C1817.1,310,1783,310,1749,310C1714.3,310,1680,310,1646,310C1611.4,310,1577,310,1543,310C1508.6,310,1474,310,1440,310C1405.7,310,1371,310,1337,310C1302.9,310,1269,310,1234,310C1200,310,1166,310,1131,310C1097.1,310,1063,310,1029,310C994.3,310,960,310,926,310C891.4,310,857,310,823,310C788.6,310,754,310,720,310C685.7,310,651,310,617,310C582.9,310,549,310,514,310C480,310,446,310,411,310C377.1,310,343,310,309,310C274.3,310,240,310,206,310C171.4,310,137,310,103,310C68.6,310,34,310,17,310L0,310Z"/></svg>